Coordinates
version=1
nRows=8
nColumns=36
inDegrees=yes

Units are S.I. units (second, meters, Newtons, ...)
If the header above contains a line with 'inDegrees', this indicates whether rotational values are in degrees (yes) or radians (no).

endheader
time	pelvis_tilt	pelvis_list	pelvis_rotation	pelvis_tx	pelvis_ty	pelvis_tz	hip_flexion_r	hip_adduction_r	hip_rotation_r	knee_angle_r	knee_angle_r_beta	ankle_angle_r	subtalar_angle_r	mtp_angle_r	hip_flexion_l	hip_adduction_l	hip_rotation_l	knee_angle_l	knee_angle_l_beta	ankle_angle_l	subtalar_angle_l	mtp_angle_l	lumbar_extension	lumbar_bending	lumbar_rotation	arm_flex_r	arm_add_r	arm_rot_r	elbow_flex_r	pro_sup_r	arm_flex_l	arm_add_l	arm_rot_l	elbow_flex_l	pro_sup_l
      0.00000000	     -0.33989698	      2.23048703	     -3.75765365	     -0.11311831	      1.34534771	     -0.07883885	     -1.68189148	     -1.24430205	     -2.16228790	      8.32665876	      0.14532761	      6.65874091	    -10.01379785	     -7.49258152	     -0.47404437	      1.30639667	     -3.05694629	      4.98126288	      0.08693944	     14.00081247	      3.45331611	     -7.49258152	     -3.82116056	      0.32410006	     -0.27751435	      4.56755337	    -12.68118935	     36.29305538	    103.21791151	    100.17482257	      4.13375934	    -12.87929864	     41.07767695	    101.24407778	     92.76489608
      0.01666670	     -1.41859598	      2.32657893	     -2.95988341	     -0.11263814	      1.34361800	     -0.07966389	     -0.94963840	     -0.92760574	     -2.41655679	      7.85397569	      0.13707774	      9.17336166	     -7.22903101	     -7.49336218	      0.60185962	      1.69091594	     -2.38646525	      4.31436493	      0.07529987	     13.47305702	      4.32934473	     -7.49336218	     -2.02003710	      0.73434529	     -0.76450561	      3.06846618	    -13.30595874	     36.44176350	    104.74862324	     97.67720757	      4.07812980	    -13.83125574	     43.03393685	    102.62362135	     90.87482119
      0.03333330	     -2.20631433	      2.57529231	     -2.67967762	     -0.11522023	      1.34034514	     -0.07860941	     -0.32168234	     -0.94065234	     -3.20324165	      7.22142133	      0.12603758	      9.68606300	     -8.31264997	     -7.49388329	      1.38833913	      1.85597524	     -2.66827508	      3.99307504	      0.06969231	     13.76397926	      4.98824067	     -7.49388329	     -1.10736614	      0.42406070	     -0.60281394	      2.37657880	    -13.73572256	     37.78328411	    106.54771471	     96.26436306	      3.98261432	    -14.00373361	     43.14033636	    102.40228393	     89.18636833
      0.05000000	     -1.40931033	      2.66337020	     -2.52652928	     -0.11538667	      1.34445473	     -0.07815253	     -1.40833781	     -0.98168412	     -3.50816548	      6.70302644	      0.11698988	      9.71994259	     -8.90929141	     -7.49533367	      0.13844804	      2.07949540	     -2.85010045	      3.00352129	      0.05242134	     13.77724326	      5.70419981	     -7.49533367	     -2.12176095	      0.17390562	     -0.16378297	      2.29161644	    -13.80643229	     38.69600819	    106.77800969	     94.43282654	      4.86532555	    -13.95072454	     44.39408013	    102.13620858	     82.60412411
      0.06666670	     -1.33568100	      2.65056924	     -2.28330305	     -0.11562584	      1.34345365	     -0.07842620	     -1.48577277	     -0.86102635	     -3.78520773	      6.61769754	      0.11550061	      9.69179813	     -9.60432490	     -7.49775401	     -0.21463879	      2.13123524	     -2.52955525	      2.48614503	      0.04339142	     13.47580482	      5.50700563	     -7.49775401	     -2.27964775	      0.10624482	      0.07632284	      2.38322319	    -13.50505445	     38.96833304	    106.66482924	     93.56454204	      5.55760359	    -13.80008539	     45.44185698	    101.95495717	     79.49343249
      0.08333330	     -1.12069859	      2.64767458	     -2.10949851	     -0.11532200	      1.34421509	     -0.07793763	     -1.67275719	     -0.73409084	     -3.71061219	      6.25080071	      0.10909705	      9.81645489	     -9.81545819	     -7.49901030	     -0.60403142	      2.16499424	     -2.26646872	      2.12475740	      0.03708401	     13.27051632	      5.43089927	     -7.49901030	     -2.48012869	      0.00446948	      0.33129016	      2.71035342	    -12.99702707	     38.90422197	    106.57862099	     92.86648294	      5.82624498	    -13.61756518	     46.16735486	    102.14687544	     77.82485244
      0.10000000	     -1.04620306	      2.61309560	     -1.91746949	     -0.11546937	      1.34572341	     -0.07766445	     -1.75220378	     -0.58096612	     -3.64027642	      5.81492446	      0.10148958	     10.14474734	     -9.44820315	     -7.49952316	     -0.70900537	      2.12678140	     -2.18872363	      1.85384440	      0.03235569	     13.22132444	      5.81964321	     -7.49952316	     -2.54833218	     -0.08402711	      0.57652901	      2.77822008	    -12.50104707	     38.47210674	    106.25741780	     90.51459066	      6.28319457	    -13.54881015	     46.81852198	    102.10811533	     75.13927344
      0.11666670	     -0.87547882	      2.55895349	     -1.74918482	     -0.11526763	      1.34541612	     -0.07796801	     -2.02396370	     -0.45412167	     -3.36448175	      5.66645973	      0.09889838	      9.87193364	    -10.01508954	     -7.49986086	     -0.98309217	      2.08775857	     -1.73764047	      1.76701786	      0.03084028	     13.06952157	      5.52279241	     -7.49986086	     -2.75120109	     -0.09182668	      0.48334689	      3.11314556	    -12.10405427	     38.26225659	    105.93955882	     91.77935216	      6.45607457	    -13.46177371	     47.00850574	    102.16526785	     74.64802328
